<?xml version="1.0" encoding="UTF-8"?>
<svg xmlns="http://www.w3.org/2000/svg" xmlns:xlink="http://www.w3.org/1999/xlink" viewBox="0 0 32 32" width="32px" height="32px">
<g id="surface5342547">
<path style=" stroke:none;fill-rule:nonzero;fill:rgb(80.000001%,80.000001%,80.000001%);fill-opacity:1;" d="M 0 16 C 0 7.164062 7.164062 0 16 0 C 24.835938 0 32 7.164062 32 16 C 32 24.835938 24.835938 32 16 32 C 7.164062 32 0 24.835938 0 16 Z M 16 30.71875 C 24.128906 30.71875 30.71875 24.128906 30.71875 16 C 30.71875 7.871094 24.128906 1.28125 16 1.28125 C 7.871094 1.28125 1.28125 7.871094 1.28125 16 C 1.28125 24.128906 7.871094 30.71875 16 30.71875 Z M 16 30.71875 "/>
<path style=" stroke:none;fill-rule:nonzero;fill:rgb(0%,0%,0%);fill-opacity:1;" d="M 15 4.601562 C 9.257812 4.601562 4.601562 9.257812 4.601562 15 C 4.601562 19.40625 7.34375 23.167969 11.210938 24.6875 C 11.117188 23.863281 11.039062 22.601562 11.242188 21.699219 C 11.4375 20.894531 12.460938 16.53125 12.460938 16.53125 C 12.460938 16.53125 12.15625 15.90625 12.15625 14.988281 C 12.15625 13.542969 12.992188 12.460938 14.039062 12.460938 C 14.925781 12.460938 15.351562 13.132812 15.351562 13.925781 C 15.351562 14.820312 14.78125 16.15625 14.492188 17.386719 C 14.242188 18.425781 15.011719 19.269531 16.03125 19.269531 C 17.882812 19.269531 19.300781 17.320312 19.300781 14.507812 C 19.300781 12.019531 17.511719 10.273438 14.957031 10.273438 C 12 10.273438 10.261719 12.492188 10.261719 14.789062 C 10.261719 15.679688 10.605469 16.644531 11.039062 17.164062 C 11.117188 17.269531 11.132812 17.355469 11.105469 17.460938 C 11.03125 17.789062 10.851562 18.5 10.820312 18.644531 C 10.773438 18.832031 10.667969 18.875 10.46875 18.78125 C 9.167969 18.175781 8.355469 16.273438 8.355469 14.75 C 8.355469 11.46875 10.742188 8.457031 15.230469 8.457031 C 18.835938 8.457031 21.644531 11.023438 21.644531 14.460938 C 21.644531 18.042969 19.382812 20.929688 16.242188 20.929688 C 15.1875 20.929688 14.199219 20.382812 13.863281 19.738281 C 13.863281 19.738281 13.335938 21.726562 13.210938 22.210938 C 12.976562 23.113281 12.34375 24.242188 11.917969 24.9375 C 12.894531 25.238281 13.925781 25.398438 15 25.398438 C 20.742188 25.398438 25.398438 20.742188 25.398438 15 C 25.398438 9.257812 20.742188 4.601562 15 4.601562 Z M 15 4.601562 "/>
</g>
</svg>
