<?xml version="1.0" encoding="UTF-8"?>
<svg xmlns="http://www.w3.org/2000/svg" xmlns:xlink="http://www.w3.org/1999/xlink" viewBox="0 0 16 16" width="16px" height="16px">
<g id="surface5351426">
<path style=" stroke:none;fill-rule:nonzero;fill:rgb(80.000001%,80.000001%,80.000001%);fill-opacity:1;" d="M 0 8 C 0 3.582031 3.582031 0 8 0 C 12.417969 0 16 3.582031 16 8 C 16 12.417969 12.417969 16 8 16 C 3.582031 16 0 12.417969 0 8 Z M 8 15.359375 C 12.066406 15.359375 15.359375 12.066406 15.359375 8 C 15.359375 3.933594 12.066406 0.640625 8 0.640625 C 3.933594 0.640625 0.640625 3.933594 0.640625 8 C 0.640625 12.066406 3.933594 15.359375 8 15.359375 Z M 8 15.359375 "/>
<path style=" stroke:none;fill-rule:nonzero;fill:rgb(0%,0%,0%);fill-opacity:1;" d="M 13.21875 4.367188 C 12.828125 4.535156 12.433594 4.660156 12 4.703125 C 12.433594 4.453125 12.785156 4.027344 12.957031 3.570312 C 12.523438 3.820312 12.089844 3.988281 11.609375 4.074219 C 11.175781 3.652344 10.609375 3.398438 10 3.398438 C 8.828125 3.398438 7.867188 4.324219 7.867188 5.460938 C 7.867188 5.628906 7.867188 5.796875 7.914062 5.925781 C 5.671875 5.925781 4.132812 4.660156 3.089844 3.398438 C 2.871094 3.695312 2.785156 4.074219 2.785156 4.453125 C 2.785156 5.164062 3.179688 5.796875 3.742188 6.175781 C 3.394531 6.132812 3.046875 6.050781 2.785156 5.925781 C 2.785156 5.925781 2.785156 5.925781 2.785156 5.964844 C 2.785156 6.976562 3.523438 7.816406 4.480469 7.984375 C 4.308594 8.023438 4.132812 8.066406 3.914062 8.066406 C 3.785156 8.066406 3.65625 8.066406 3.523438 8.027344 C 3.785156 8.867188 5 9.835938 5.957031 9.835938 C 5.214844 10.378906 4.527344 10.855469 3.15625 10.855469 C 2.980469 10.855469 3.121094 10.855469 2.78125 10.855469 C 3.738281 11.441406 4.871094 11.601562 6.042969 11.601562 C 10 11.601562 12.132812 8.445312 12.132812 5.710938 C 12.132812 5.628906 12.132812 5.546875 12.132812 5.460938 C 12.566406 5.164062 12.914062 4.789062 13.21875 4.367188 "/>
</g>
</svg>
