<?xml version="1.0" encoding="UTF-8"?>
<svg xmlns="http://www.w3.org/2000/svg" xmlns:xlink="http://www.w3.org/1999/xlink" viewBox="0 0 32 32" width="32px" height="32px">
<g id="surface5536606">
<path style=" stroke:none;fill-rule:nonzero;fill:rgb(80.000001%,80.000001%,80.000001%);fill-opacity:1;" d="M 0 16 C 0 7.164062 7.164062 0 16 0 C 24.835938 0 32 7.164062 32 16 C 32 24.835938 24.835938 32 16 32 C 7.164062 32 0 24.835938 0 16 Z M 16 30.71875 C 24.128906 30.71875 30.71875 24.128906 30.71875 16 C 30.71875 7.871094 24.128906 1.28125 16 1.28125 C 7.871094 1.28125 1.28125 7.871094 1.28125 16 C 1.28125 24.128906 7.871094 30.71875 16 30.71875 Z M 16 30.71875 "/>
<path style=" stroke:none;fill-rule:nonzero;fill:rgb(0%,0%,0%);fill-opacity:1;" d="M 21.964844 12.800781 L 18.203125 12.800781 L 18.203125 10.667969 C 18.203125 9.566406 18.292969 8.871094 19.871094 8.871094 L 21.863281 8.871094 L 21.863281 5.480469 C 20.894531 5.378906 19.917969 5.332031 18.941406 5.332031 C 16.046875 5.332031 13.9375 7.101562 13.9375 10.34375 L 13.9375 12.800781 L 10.738281 12.800781 L 10.738281 17.066406 L 13.9375 17.066406 L 13.9375 26.667969 L 18.203125 26.667969 L 18.203125 17.0625 L 21.472656 17.0625 Z M 21.964844 12.800781 "/>
</g>
</svg>
