<?xml version="1.0" encoding="UTF-8"?>
<svg xmlns="http://www.w3.org/2000/svg" xmlns:xlink="http://www.w3.org/1999/xlink" viewBox="0 0 32 32" width="32px" height="32px">
<g id="surface5381939">
<path style=" stroke:none;fill-rule:nonzero;fill:rgb(80.000001%,80.000001%,80.000001%);fill-opacity:1;" d="M 0 16 C 0 7.164062 7.164062 0 16 0 C 24.835938 0 32 7.164062 32 16 C 32 24.835938 24.835938 32 16 32 C 7.164062 32 0 24.835938 0 16 Z M 16 30.71875 C 24.128906 30.71875 30.71875 24.128906 30.71875 16 C 30.71875 7.871094 24.128906 1.28125 16 1.28125 C 7.871094 1.28125 1.28125 7.871094 1.28125 16 C 1.28125 24.128906 7.871094 30.71875 16 30.71875 Z M 16 30.71875 "/>
<path style=" stroke:none;fill-rule:nonzero;fill:rgb(0%,0%,0%);fill-opacity:1;" d="M 12.554688 9.800781 C 9.128906 9.800781 6.355469 12.574219 6.355469 16 C 6.355469 19.425781 9.128906 22.199219 12.554688 22.199219 C 15.980469 22.199219 18.753906 19.425781 18.753906 16 C 18.753906 15.574219 18.710938 15.160156 18.625 14.757812 L 18.59375 14.621094 L 12.554688 14.621094 L 12.554688 16.6875 L 16.6875 16.6875 C 16.359375 18.640625 14.601562 20.132812 12.554688 20.132812 C 10.273438 20.132812 8.421875 18.28125 8.421875 16 C 8.421875 13.71875 10.273438 11.867188 12.554688 11.867188 C 13.589844 11.867188 14.53125 12.25 15.257812 12.875 L 16.738281 11.425781 C 15.632812 10.417969 14.167969 9.800781 12.554688 9.800781 Z M 22.199219 12.554688 L 22.199219 14.621094 L 20.132812 14.621094 L 20.132812 16 L 22.199219 16 L 22.199219 18.066406 L 23.578125 18.066406 L 23.578125 16 L 25.644531 16 L 25.644531 14.621094 L 23.578125 14.621094 L 23.578125 12.554688 Z M 22.199219 12.554688 "/>
</g>
</svg>
