<?xml version="1.0"?>
<svg xmlns:rdf="http://www.w3.org/1999/02/22-rdf-syntax-ns#" xmlns="http://www.w3.org/2000/svg" xmlns:cc="http://creativecommons.org/ns#" xmlns:dc="http://purl.org/dc/elements/1.1/" xmlns:svg="http://www.w3.org/2000/svg" id="svg3268" viewBox="0 0 290.25284 273.48196" version="1.1">
  <g id="layer1" transform="translate(-183.45 -192.77)">
    <g id="g170" fill-rule="evenodd" transform="matrix(3.5227,0,0,3.3179,-803.8,-642.86)" stroke="#666" clip-rule="evenodd" stroke-width="3">
      <path id="path172" d="m321.77 253.4c12.749-0.021 21.888 5.847 28.325 12.332 6.256 6.303 11.236 15.815 11.094 27.73-0.154 12.926-5.735 21.926-12.332 28.325-6.873 6.668-16.063 10.867-27.862 10.947-12.729 0.086-21.679-5.605-28.193-12.187-6.692-6.759-11.15-15.48-11.093-27.73 0.06-12.927 5.599-22.209 12.054-28.339 3.346-3.178 6.971-5.803 11.829-7.88 4.534-1.941 10.281-3.188 16.178-3.198zm-12.372 2.282c0.119 1.835-0.01 3.893-0.024 5.849 5.82 0.401 10.44 1.887 13.978 4.345 3.9-1.693 8.747-2.338 14.053-2.473 0.506-1.837 0.416-3.891 0.45-5.965-6.899-4.116-20.897-4.936-28.457-1.756zm28.554 7.888c4.318 3.125 7.122 7.613 10.103 11.944 3.231 1.058 6.067 2.476 8.557 4.202 0.378-0.605 0.913-1.042 1.205-1.747-3.919-9-10.081-15.979-19.283-20.218-0.017 2.137-0.342 3.931-0.582 5.819zm-17.155 19.301c1.084-0.835 3.089-1.794 3.354-2.889 0.211-0.873-0.151-2.385-0.237-3.494-0.278-3.63-0.511-6.99-1.003-10.218-1.598-1.178-3.609-2.231-5.975-2.956-2.199-0.673-6.553-1.678-8.441-0.995-2.496 0.905-4.658 1.941-7.174 4.084-1.292 1.101-5.137 4.384-5.602 5.976-0.326 1.115-0.126 2.778-0.069 4.035 0.174 3.957 0.67 7.395 1.526 10.802 4.922 1.123 9.428 2.623 13.848 4.199 2.868-2.895 6.34-5.893 9.773-8.544zm-32.722-10.749c-1.589 2.714-3.619 6.365-4.73 10.615-1.374 5.261-2.304 13.304 0.24 16.863 1.957 0.593 4.961 0.883 6.944 0.36 1.055-5.391 3.557-9.174 6.233-12.768-1.357-4.204-1.597-9.416-1.597-14.843-2.23-0.64-4.953-0.757-7.09-0.227zm55.906 9.447c-0.735 1.017-3.456 3.935-3.606 5.104-0.114 0.891 0.658 2.81 0.91 3.946 0.925 4.171 1.646 8.236 1.689 13.039 3.254 1.39 6.316 2.955 9.229 4.655 1.555-1.245 3.064-3.067 4.302-5.067 1.001-1.622 2.622-4.631 2.983-6.528 0.541-2.844-0.232-6.169-0.796-8.816-0.572-2.688-1.515-5.227-2.256-7.496-2.31-1.935-5.151-3.391-8.547-4.344-1.224 1.678-2.339 3.338-3.908 5.507zm-29.765 7.368c-0.968 0.872-2.65 2.3-2.812 3.195-0.186 1.041 0.451 2.703 0.632 3.933 0.623 4.233 1.238 8.216 2.019 12.08 4.601 2.517 9.837 4.461 15.71 5.829 3.709-2.011 6.707-4.72 9.863-7.566 0.982-0.885 2.543-1.987 2.805-3.055 0.299-1.222-0.043-3.205-0.179-4.606-0.431-4.418-1.534-8.398-2.437-12.103-4.732-2.308-9.574-4.52-15.432-5.813-3.142 2.468-6.907 5.166-10.169 8.106zm45.646 8.634c-1.197 3.087-3.163 6.581-5.06 8.93-0.677 0.835-1.821 1.478-2.206 2.252-0.541 1.086-0.5 2.585-0.89 3.714-0.796 2.312-1.926 4.453-2.977 6.39-0.419 0.771-1.726 1.897-0.706 2.889 1.06-0.027 1.676-1.112 2.322-1.828 0.715-0.798 1.41-1.667 2.081-2.539 3.858-5.014 7.707-11.732 7.85-19.783-0.138-0.01-0.275-0.017-0.414-0.025zm-76.314 2.723c0.151 1.005-0.167 2.71 0.069 4.043 0.623 3.504 3.15 7.936 5.278 10.997 1.145 1.646 2.215 3.045 3.657 4.645 2.491 2.764 4.831 5.191 9.929 4.556-0.988-2.86-2.411-6.476-2.222-10.84-4.291-3.5-7.576-7.909-9.9-13.187-1.847 0.354-4.796 0.087-6.811-0.214zm17.134 13.284c0.042 4.375 1.005 7.921 2.494 10.991 3.827 2.244 9.378 5.875 15.573 5.821 2.384-0.021 5.165-0.759 7.467-1.701 1.631-0.666 5.154-2.292 5.496-3.893 0.312-1.467-0.665-3.644-0.984-5.204-0.385-1.885-0.605-3.589-1.121-5.211-6.108-1.246-11.188-3.42-15.99-5.843-4.082 1.936-8.378 3.633-12.935 5.04zm44.398 11.216c1.239-0.91 3.604-2.496 1.839-3.245-3.719 2.533-8.541 3.84-14.674 3.693-3.224 3.426-8.018 5.108-13.672 5.836 0.132 0.411 0.075 0.991 0.206 1.402 10.787 0.616 19.776-2.891 26.301-7.686z" fill="#ececec"/>
      <path id="path174" d="m337.85 257.43c-0.034 2.074 0.056 4.128-0.45 5.965-5.306 0.135-10.152 0.779-14.053 2.473-3.537-2.458-8.157-3.943-13.978-4.345 0.015-1.956 0.144-4.014 0.024-5.849 7.561-3.18 21.559-2.36 28.457 1.756z" fill="#666"/>
      <path id="path176" d="m338.53 257.75c9.202 4.238 15.364 11.218 19.283 20.218-0.292 0.705-0.827 1.142-1.205 1.747-2.489-1.727-5.325-3.145-8.557-4.202-2.98-4.331-5.784-8.819-10.103-11.944 0.241-1.889 0.566-3.683 0.582-5.819z" fill="#f9f9f9"/>
      <path id="path178" d="m311.02 291.41c-4.42-1.576-8.926-3.076-13.848-4.199-0.855-3.407-1.352-6.845-1.526-10.802-0.058-1.257-0.257-2.92 0.069-4.035 0.465-1.592 4.31-4.875 5.602-5.976 2.516-2.143 4.678-3.179 7.174-4.084 1.889-0.683 6.242 0.322 8.441 0.995 2.365 0.725 4.377 1.778 5.975 2.956 0.492 3.228 0.725 6.588 1.003 10.218 0.086 1.109 0.448 2.621 0.237 3.494-0.266 1.095-2.271 2.054-3.354 2.889-3.433 2.651-6.905 5.649-9.773 8.544z" fill="#f9f9f9"/>
      <path id="path180" d="m295.16 272.35c0 5.427 0.239 10.639 1.597 14.843-2.676 3.594-5.178 7.377-6.233 12.768-1.982 0.522-4.987 0.232-6.944-0.36-2.544-3.56-1.614-11.603-0.24-16.863 1.112-4.25 3.142-7.901 4.73-10.615 2.137-0.532 4.86-0.415 7.09 0.227z" fill="#666"/>
      <path id="path182" d="m347.89 276.06c3.396 0.953 6.237 2.409 8.547 4.344 0.741 2.27 1.684 4.808 2.256 7.496 0.563 2.647 1.337 5.973 0.796 8.816-0.361 1.897-1.982 4.906-2.983 6.528-1.237 2-2.747 3.822-4.302 5.067-2.912-1.7-5.975-3.266-9.229-4.655-0.043-4.803-0.765-8.868-1.689-13.039-0.252-1.137-1.024-3.056-0.91-3.946 0.15-1.169 2.871-4.087 3.606-5.104 1.569-2.169 2.684-3.829 3.908-5.507z" fill="#f2f2f2"/>
      <path id="path184" d="m324.38 280.83c5.857 1.293 10.699 3.505 15.432 5.813 0.902 3.704 2.006 7.685 2.437 12.103 0.136 1.401 0.478 3.385 0.179 4.606-0.262 1.067-1.822 2.17-2.805 3.055-3.156 2.847-6.154 5.556-9.863 7.566-5.873-1.368-11.109-3.313-15.71-5.829-0.78-3.864-1.396-7.847-2.019-12.08-0.181-1.229-0.817-2.892-0.632-3.933 0.161-0.896 1.844-2.323 2.812-3.195 3.261-2.94 7.026-5.638 10.169-8.106z" fill="#666"/>
      <path id="path186" d="m360.27 297.59c-0.143 8.051-3.991 14.77-7.85 19.783-0.671 0.872-1.366 1.741-2.081 2.539-0.646 0.716-1.263 1.801-2.322 1.828-1.02-0.991 0.287-2.117 0.706-2.889 1.051-1.937 2.181-4.078 2.977-6.39 0.39-1.129 0.349-2.628 0.89-3.714 0.385-0.774 1.529-1.417 2.206-2.252 1.896-2.349 3.862-5.843 5.06-8.93 0.138 0.009 0.275 0.016 0.414 0.025z" fill="#666"/>
      <path id="path188" d="m290.36 300.5c2.324 5.277 5.609 9.687 9.9 13.187-0.189 4.364 1.233 7.979 2.222 10.84-5.098 0.636-7.438-1.792-9.929-4.556-1.441-1.6-2.512-2.999-3.657-4.645-2.128-3.062-4.656-7.493-5.278-10.997-0.236-1.333 0.083-3.038-0.069-4.043 2.015 0.301 4.964 0.568 6.811 0.214z" fill="#f9f9f9"/>
      <path id="path190" d="m313.61 308.54c4.803 2.423 9.882 4.597 15.99 5.843 0.516 1.622 0.736 3.326 1.121 5.211 0.319 1.561 1.296 3.737 0.984 5.204-0.342 1.601-3.865 3.227-5.496 3.893-2.302 0.942-5.083 1.681-7.467 1.701-6.195 0.054-11.746-3.577-15.573-5.821-1.489-3.07-2.452-6.616-2.494-10.991 4.558-1.408 8.854-3.105 12.935-5.04z" fill="#f2f2f2"/>
      <path id="path192" d="m318.78 332.48c-0.131-0.411-0.074-0.991-0.206-1.402 5.654-0.728 10.448-2.41 13.672-5.836 6.133 0.146 10.955-1.16 14.674-3.693 1.766 0.749-0.6 2.335-1.839 3.245-6.525 4.794-15.514 8.301-26.301 7.686z" fill="#ccc"/>
    </g>
  </g>
  <metadata>
    <rdf:RDF>
      <cc:Work>
        <dc:format>image/svg+xml</dc:format>
        <dc:type rdf:resource="http://purl.org/dc/dcmitype/StillImage"/>
        <cc:license rdf:resource="http://creativecommons.org/licenses/publicdomain/"/>
        <dc:publisher>
          <cc:Agent rdf:about="http://openclipart.org/">
            <dc:title>Openclipart</dc:title>
          </cc:Agent>
        </dc:publisher>
        <dc:title>Soccer Ball</dc:title>
        <dc:date>2010-09-10T17:07:55</dc:date>
        <dc:description>a very simple soccer ball. useful for icons etc</dc:description>
        <dc:source>http://openclipart.org/detail/84241/soccer-ball-by-wildchief</dc:source>
        <dc:creator>
          <cc:Agent>
            <dc:title>wildchief</dc:title>
          </cc:Agent>
        </dc:creator>
        <dc:subject>
          <rdf:Bag>
            <rdf:li>ball</rdf:li>
            <rdf:li>clip art</rdf:li>
            <rdf:li>clipart</rdf:li>
            <rdf:li>football</rdf:li>
            <rdf:li>soccer</rdf:li>
            <rdf:li>sports</rdf:li>
          </rdf:Bag>
        </dc:subject>
      </cc:Work>
      <cc:License rdf:about="http://creativecommons.org/licenses/publicdomain/">
        <cc:permits rdf:resource="http://creativecommons.org/ns#Reproduction"/>
        <cc:permits rdf:resource="http://creativecommons.org/ns#Distribution"/>
        <cc:permits rdf:resource="http://creativecommons.org/ns#DerivativeWorks"/>
      </cc:License>
    </rdf:RDF>
  </metadata>
</svg>
